<svg width="100" height="100" viewBox="0 0 100 100" fill="red" xmlns="http://www.w3.org/2000/svg">
<path d="M76.3333 53.1249H62.5C52.125 53.1249 46.875 47.2499 46.875 35.6249V23.6666C46.875 19.4166 47.375 13.3333 51.7917 9.99992C55.5 7.24992 60.8333 7.04158 68.7083 9.33325C79.0417 12.3333 87.6667 20.9583 90.6667 31.2916C92.9583 39.1249 92.75 44.4999 90 48.1666C86.6667 52.6249 80.5833 53.1249 76.3333 53.1249ZM59.5 13.9999C57.7917 13.9999 56.4583 14.3332 55.5833 14.9999C53.9583 16.2082 53.1667 19.0416 53.1667 23.6666V35.6666C53.1667 44.9999 56.75 46.9166 62.5417 46.9166H76.375C80.9583 46.9166 83.7917 46.1249 85.0417 44.4999C86.5 42.5833 86.375 38.7499 84.75 33.1249C82.3333 24.9166 75.25 17.7916 67.0417 15.4166C63.9583 14.4583 61.4583 13.9999 59.5 13.9999Z" fill="#EEFAFF"/>
<path d="M46.125 94.7919C43.9167 94.7919 41.6667 94.6252 39.4167 94.2502C22.375 91.5002 8.5 77.6669 5.75 60.6252C2.20833 38.7085 16.3333 18.0419 37.9583 13.6252C39.6667 13.2919 41.2917 14.3752 41.6667 16.0419C42 17.7502 40.9167 19.3752 39.25 19.7502C20.9583 23.5002 8.95833 41.0002 12 59.6252C14.3333 74.0419 26.0417 85.7502 40.4583 88.0835C59.1667 91.0835 76.625 79.0419 80.3333 60.6669C80.6667 58.9585 82.3333 57.8752 84 58.2085C85.7083 58.5419 86.7917 60.2085 86.4583 61.8752C82.5 81.3335 65.5 94.7919 46.125 94.7919Z" fill="#000"/>
</svg>
