<svg width="72" height="76" viewBox="0 0 72 76" fill="none" xmlns="http://www.w3.org/2000/svg">
<circle cx="36" cy="40" r="36" fill="#640046"/>
<path d="M47.4182 29.3112C47.4182 36.8909 50.6574 42.8291 54.7936 42.8291C58.9297 42.8291 62.1689 36.8909 62.1689 29.3112C62.1689 21.7314 58.9297 15.7932 54.7936 15.7932C50.6574 15.7932 47.4182 21.7314 47.4182 29.3112ZM60.4093 29.3112C60.4093 35.6712 57.8377 41.0437 54.7936 41.0437C51.7494 41.0437 49.1778 35.6712 49.1778 29.3112C49.1778 22.9511 51.7494 17.5786 54.7936 17.5786C57.8377 17.5786 60.4093 22.9511 60.4093 29.3112Z" fill="white"/>
<path d="M69.4724 0H40.1167C39.8835 0.000270022 39.6599 0.0944081 39.4949 0.261762C39.33 0.429116 39.2372 0.656019 39.2369 0.892694V5.33066C39.2369 5.34596 39.242 5.36126 39.242 5.37657C39.2394 5.39005 39.2394 5.40389 39.242 5.41737L41.8211 31.9023H40.7854V31.0402C40.7844 30.0061 40.4302 29.0042 39.783 28.2052C39.1358 27.4063 38.2357 26.8596 37.236 26.6584C37.0842 23.2869 35.9621 20.0344 34.0083 17.303L31.8314 14.2576C31.7513 14.1452 31.6464 14.0534 31.525 13.9896C31.4037 13.9258 31.2692 13.8918 31.1326 13.8903C30.9953 13.884 30.8587 13.9123 30.7349 13.9729C30.6112 14.0334 30.5042 14.1243 30.4237 14.2372L27.8094 17.7008C26.9719 18.8022 25.8974 19.6946 24.6679 20.31C23.4384 20.9253 22.0865 21.2473 20.7155 21.2512C19.2302 21.2529 17.7959 21.8013 16.6789 22.7948C15.562 23.7883 14.8383 25.1593 14.6423 26.6533C13.6349 26.8467 12.7255 27.3907 12.0711 28.1916C11.4167 28.9924 11.0583 29.9999 11.0577 31.0402V31.9023H9.87622C9.64296 31.9026 9.41933 31.9967 9.25439 32.1641C9.08945 32.3314 8.99667 32.5583 8.9964 32.795V38.6715H6.87982C6.7642 38.6712 6.64968 38.6941 6.54281 38.7389C6.43595 38.7837 6.33885 38.8494 6.2571 38.9324C6.17535 39.0153 6.11056 39.1138 6.06643 39.2222C6.02231 39.3307 5.99974 39.4469 6 39.5642V49.6287C6.00738 55.1941 7.8418 60.5984 11.2135 64.9881C11.2952 65.0961 11.4002 65.1835 11.5206 65.2437C11.6409 65.3038 11.7732 65.3351 11.9073 65.335H39.9357C40.0699 65.3351 40.2022 65.3038 40.3225 65.2437C40.4428 65.1835 40.5479 65.0961 40.6295 64.9881C41.9677 63.2447 43.0717 61.3286 43.9125 59.2902V62.361C43.9134 63.1386 44.2183 63.8842 44.7602 64.434C45.3022 64.9839 46.0369 65.2932 46.8033 65.2942H62.6953C63.462 65.294 64.1972 64.985 64.7393 64.4349C65.2814 63.8849 65.586 63.1389 65.5861 62.361V53.6738C65.6326 53.5815 65.6616 53.4812 65.6716 53.378L70.3472 5.41737V5.37657C70.3472 5.36126 70.3522 5.34596 70.3522 5.33066V0.892694C70.352 0.656019 70.2592 0.429116 70.0942 0.261762C69.9293 0.0944081 69.7057 0.000270022 69.4724 0ZM12.8173 31.0402C12.8194 30.3289 13.0996 29.6474 13.5963 29.1453C14.093 28.6433 14.7657 28.3616 15.4668 28.3622H22.9226C23.156 28.3622 23.3798 28.2681 23.5448 28.1007C23.7097 27.9333 23.8024 27.7062 23.8024 27.4695C23.8024 27.2327 23.7097 27.0056 23.5448 26.8382C23.3798 26.6708 23.156 26.5768 22.9226 26.5768H16.4371C16.6405 25.5776 17.1771 24.6801 17.9563 24.0353C18.7356 23.3905 19.71 23.0378 20.7155 23.0366C22.3558 23.0319 23.9733 22.6466 25.4442 21.9101C26.9151 21.1736 28.2005 20.1054 29.202 18.7874L31.1024 16.2776L32.5805 18.3538C34.3018 20.7557 35.3023 23.6113 35.4613 26.5768H33.762C33.5286 26.5768 33.3048 26.6708 33.1398 26.8382C32.9748 27.0056 32.8821 27.2327 32.8821 27.4695C32.8821 27.7062 32.9748 27.9333 33.1398 28.1007C33.3048 28.2681 33.5286 28.3622 33.762 28.3622H36.2053C36.2341 28.3613 36.2627 28.3579 36.2908 28.3519C36.3172 28.3579 36.3442 28.3613 36.3712 28.3622H36.3863C37.0859 28.3638 37.7563 28.6464 38.2509 29.1483C38.7456 29.6502 39.0242 30.3305 39.0258 31.0402V31.9023H12.8173V31.0402ZM10.756 37.0697H21.4596C21.693 37.0697 21.9167 36.9757 22.0817 36.8083C22.2467 36.6409 22.3394 36.4138 22.3394 36.177C22.3394 35.9403 22.2467 35.7132 22.0817 35.5458C21.9167 35.3784 21.693 35.2844 21.4596 35.2844H10.756V33.6877H41.0871V35.2844H30.3835C30.1501 35.2844 29.9263 35.3784 29.7613 35.5458C29.5963 35.7132 29.5037 35.9403 29.5037 36.177C29.5037 36.4138 29.5963 36.6409 29.7613 36.8083C29.9263 36.9757 30.1501 37.0697 30.3835 37.0697H41.0871V38.6715H10.756V37.0697ZM44.0835 49.6287C44.0835 50.0929 44.0633 50.5673 44.0332 51.0417C44.0281 51.108 44.0282 51.1794 44.0231 51.2457C43.9879 51.7099 43.9427 52.1741 43.8824 52.6383C43.3676 56.5967 41.8579 60.3542 39.4984 63.5496H12.3397C9.37429 59.5314 7.7678 54.6485 7.75963 49.6287V40.4569H44.0835V49.6287ZM63.8265 62.361C63.8261 62.6653 63.7068 62.957 63.4948 63.1722C63.2827 63.3873 62.9952 63.5084 62.6953 63.5088H46.8033C46.5035 63.5084 46.216 63.3873 46.0039 63.1722C45.7919 62.957 45.6725 62.6653 45.6721 62.361V57.6884H63.8265V62.361ZM63.8265 55.903H45.6721V54.1839H63.8265V55.903ZM63.9975 52.3986H45.6872C45.6923 52.3373 45.6973 52.2812 45.7023 52.22C45.7375 51.8783 45.7677 51.5365 45.7878 51.1947C45.7928 51.0927 45.8029 50.9907 45.8079 50.8886C45.828 50.4703 45.8431 50.047 45.8431 49.6287V39.5642C45.8433 39.4469 45.8208 39.3307 45.7767 39.2222C45.7325 39.1138 45.6677 39.0153 45.586 38.9324C45.5042 38.8494 45.4071 38.7837 45.3003 38.7389C45.1934 38.6941 45.0789 38.6712 44.9633 38.6715H44.2494L41.0871 6.22335H68.5021L63.9975 52.3986ZM68.5926 4.43796H40.9966V1.78539H68.5926V4.43796Z" fill="white"/>
<path d="M33.757 48.6994C33.757 48.4626 33.6643 48.2356 33.4993 48.0681C33.3343 47.9007 33.1105 47.8067 32.8771 47.8067C31.5908 47.8032 30.3237 48.1241 29.19 48.7407C28.6699 47.2998 27.6692 46.089 26.3615 45.3183C26.2275 45.2395 26.0754 45.198 25.9206 45.198C25.7657 45.198 25.6136 45.2395 25.4796 45.3183C24.1722 46.0893 23.1721 47.3003 22.6527 48.7412C21.5189 48.1246 20.2518 47.8037 18.9655 47.8072C18.7321 47.8072 18.5083 47.9012 18.3433 48.0687C18.1783 48.2361 18.0857 48.4631 18.0857 48.6999V48.8193C18.0855 50.6092 18.684 52.3461 19.7835 53.7459C19.1329 54.1722 18.5915 54.7492 18.2038 55.4293C18.1264 55.5652 18.0856 55.7194 18.0856 55.8764C18.0856 56.0334 18.1264 56.1876 18.2038 56.3235C18.58 56.9855 19.1017 57.5503 19.7284 57.9739C20.3551 58.3976 21.0698 58.6687 21.8167 58.766C22.5636 58.8633 23.3226 58.7843 24.0344 58.535C24.7463 58.2857 25.3918 57.873 25.9206 57.329C26.4493 57.873 27.0948 58.2857 27.8066 58.5349C28.5185 58.7841 29.2774 58.8631 30.0243 58.7658C30.7712 58.6684 31.4858 58.3973 32.1124 57.9736C32.7391 57.5498 33.2607 56.985 33.6368 56.323C33.7143 56.1872 33.755 56.0331 33.755 55.8762C33.755 55.7193 33.7143 55.5651 33.6368 55.4293C33.2492 54.7492 32.708 54.1722 32.0577 53.7459C33.1575 52.3461 33.7566 50.609 33.757 48.8187V48.6994ZM29.5746 50.5832C30.2897 50.1095 31.0964 49.7964 31.9405 49.665C31.8021 50.6394 31.4378 51.5666 30.8775 52.3703C30.3173 53.1741 29.5772 53.8316 28.7179 54.2887C28.8129 54.2377 28.8918 53.9316 28.9341 53.8393C29.0652 53.5564 29.1793 53.2658 29.2759 52.969C29.5192 52.1992 29.6197 51.3903 29.5725 50.5832H29.5746ZM25.9206 47.1548C26.5097 47.5969 26.9885 48.1731 27.3184 48.8371C27.6483 49.501 27.8201 50.2342 27.8201 50.9778C27.8201 51.7214 27.6483 52.4546 27.3184 53.1185C26.9885 53.7825 26.5097 54.3587 25.9206 54.8008C25.3313 54.3587 24.8525 53.7825 24.5225 53.1186C24.1925 52.4546 24.0206 51.7214 24.0206 50.9778C24.0206 50.2342 24.1925 49.501 24.5225 48.837C24.8525 48.1731 25.3313 47.5969 25.9206 47.1548ZM22.2691 50.5832C22.2204 51.3845 22.3187 52.1879 22.5591 52.9527C22.6591 53.2717 22.7839 53.5821 22.9322 53.8811C23.0017 54.0119 23.0641 54.1464 23.1192 54.2841C22.2613 53.8267 21.5224 53.1695 20.9631 52.3665C20.4038 51.5634 20.04 50.6373 19.9016 49.664C20.7463 49.7956 21.5535 50.1091 22.2691 50.5832ZM22.4435 57.0198C21.9842 57.0187 21.5306 56.9157 21.1147 56.7178C20.6987 56.52 20.3305 56.2322 20.0358 55.8746C20.3182 55.5323 20.6685 55.2542 21.064 55.0585C21.9543 55.7684 22.984 56.2768 24.084 56.5495C23.5909 56.8568 23.0237 57.0196 22.445 57.0198H22.4435ZM29.3981 57.0198C28.8187 57.0193 28.2508 56.8556 27.7576 56.547C28.8576 56.2743 29.8874 55.7659 30.7776 55.0559C31.1732 55.2515 31.5235 55.5296 31.8058 55.8721C31.5114 56.2303 31.1432 56.5186 30.7271 56.7169C30.3111 56.9152 29.8573 57.0186 29.3976 57.0198H29.3981Z" fill="white"/>
<path d="M30.5142 26.5769H28.7486C28.5152 26.5769 28.2915 26.6709 28.1265 26.8383C27.9615 27.0057 27.8688 27.2327 27.8688 27.4694C27.8688 27.7061 27.9615 27.9331 28.1265 28.1004C28.2915 28.2678 28.5152 28.3618 28.7486 28.3618H30.5142C30.7476 28.3618 30.9714 28.2678 31.1364 28.1004C31.3013 27.9331 31.394 27.7061 31.394 27.4694C31.394 27.2327 31.3013 27.0057 31.1364 26.8383C30.9714 26.6709 30.7476 26.5769 30.5142 26.5769Z" fill="white"/>
</svg>
