<svg width="79" height="74" viewBox="0 0 79 74" fill="none" xmlns="http://www.w3.org/2000/svg">
<circle cx="36" cy="38" r="36" fill="#640046"/>
<g clip-path="url(#clip0_1_21522)">
<path d="M76.9808 60.6166L68.1917 53.76L55.5497 34.7328L59.7987 31.9285C59.7987 31.9285 61.1354 31.0898 60.2401 29.7412C59.0879 28.0057 43.3477 4.31696 43.3477 4.31696C42.0133 2.30912 39.2894 1.75627 37.2755 3.08583L33.8563 5.3426V4.37369C33.8563 1.96204 31.8899 0 29.4727 0H20.6969C18.2797 0 16.3131 1.96204 16.3131 4.37369V33.9466C12.0899 35.1977 9 39.1131 9 43.7364V65.5987C9 68.011 10.9626 69.9735 13.375 69.9735H36.7944C39.2068 69.9735 41.1694 68.011 41.1694 65.5987V43.7363C41.1694 39.1129 38.0795 35.1976 33.8563 33.9465V21.705L45.6822 39.5038C45.6823 39.5039 45.8843 39.7466 45.8843 39.7466C46.7504 40.5987 47.6973 39.9157 47.6976 39.9155C47.6982 39.9152 53.1156 36.3396 53.1156 36.3396L65.7623 55.3738L68.6655 66.1141C69.1099 67.7588 70.2808 69.0487 71.8774 69.6528C72.4916 69.8852 73.1258 70 73.755 70C74.7656 70 75.7632 69.7037 76.6432 69.123C78.0708 68.1807 78.9283 66.6619 78.9958 64.9556C79.0633 63.25 78.3289 61.6684 76.9808 60.6166ZM19.2298 4.37369C19.2298 3.57 19.8879 2.91637 20.6969 2.91637H29.4727C30.2816 2.91637 30.9398 3.57015 30.9398 4.37369V7.2676L29.9586 7.9151C28.9808 8.56056 28.314 9.54742 28.081 10.6938C27.8482 11.8389 28.0763 13.0059 28.7234 13.9797L30.9488 17.3291C30.9427 17.383 30.9396 17.438 30.9396 17.4936V33.5287H19.2298V4.37369ZM38.2527 43.7364V65.5989C38.2527 66.4029 37.5985 67.0571 36.7944 67.0571H13.375C12.5709 67.0571 11.9167 66.4029 11.9167 65.5989V43.7364C11.9167 39.716 15.1877 36.4452 19.2083 36.4452H30.961C34.9818 36.4452 38.2527 39.716 38.2527 43.7364ZM47.3069 36.6788L31.1527 12.3656C30.9377 12.042 30.8619 11.6546 30.939 11.2747C31.0166 10.8932 31.239 10.5645 31.5652 10.3492L38.8823 5.52008C39.1318 5.35544 39.4135 5.27669 39.6924 5.27669C40.1687 5.27669 40.6364 5.50681 40.9184 5.93119L57.0675 30.2368L47.3069 36.6788ZM76.0813 64.8404C76.0514 65.5967 75.6706 66.2705 75.0364 66.689C74.3993 67.1094 73.6237 67.1952 72.9094 66.9251C72.1991 66.6562 71.6784 66.0834 71.481 65.3532L69.656 58.6017L75.1868 62.9163C75.7853 63.3832 76.1113 64.0844 76.0813 64.8404Z" fill="white"/>
<path d="M28.0142 40.818C28.0142 41.6232 28.6672 42.2761 29.4725 42.2761C31.0879 42.2761 32.4021 43.5838 32.4021 45.1912V62.7048C32.4021 63.5101 33.0552 64.163 33.8605 64.163C34.6658 64.163 35.3188 63.5101 35.3188 62.7048V45.1912C35.3188 41.9756 32.6961 39.3596 29.4725 39.3596C28.6672 39.3596 28.0142 40.0125 28.0142 40.818Z" fill="white"/>
</g>
<defs>
<clipPath id="clip0_1_21522">
<rect width="70" height="70" fill="white" transform="translate(9)"/>
</clipPath>
</defs>
</svg>
