<svg width="74" height="75" viewBox="0 0 74 75" fill="none" xmlns="http://www.w3.org/2000/svg">
<circle cx="36" cy="39" r="36" fill="#640046"/>
<path d="M14.4579 68.1108H3.05511C2.47227 68.1108 2 67.6386 2 67.0557C2 66.4729 2.47227 66.0006 3.05511 66.0006H14.4579C21.3825 66.0006 26.6301 65.1821 30.5003 63.4985C33.7608 62.08 36.1317 60.0522 37.8528 57.1854H25.3033C21.2669 57.1854 18.119 53.757 17.7036 49.0736H3.05511C2.47227 49.0736 2 48.6013 2 48.0184C2 47.4356 2.47227 46.9633 3.05511 46.9633H18.7121C23.8308 46.9633 28.3139 45.1604 31.6766 41.7491L39.4605 33.8354L34.8688 29.2126C34.623 28.9651 34.5154 28.6122 34.5812 28.2697C34.6472 27.9272 34.8781 27.6395 35.1981 27.5008C36.1836 27.0741 37.1172 26.6737 38.0063 26.2922C42.0787 24.5453 45.2954 23.1654 48.2611 21.4909C48.7685 21.2049 49.4123 21.3835 49.6987 21.891C49.9851 22.3984 49.8062 23.042 49.2986 23.3286C46.233 25.0595 42.9698 26.4593 38.8384 28.2316C38.3898 28.4241 37.9297 28.6214 37.4576 28.8244L49.0132 40.4584C53.9557 29.0986 56.6572 23.7738 65.6451 14.7859L71.3619 9.06913C71.7235 8.70744 71.9152 8.2069 71.8875 7.69566C71.8595 7.17767 71.6184 6.71089 71.2086 6.38113C70.5063 5.81644 69.4286 5.90197 68.7547 6.57598L63.038 12.2927C59.1397 16.1908 56.0523 18.8711 53.0271 20.9833C52.549 21.3171 51.8914 21.2001 51.558 20.7223C51.2244 20.2446 51.3413 19.5867 51.8189 19.2532C54.7389 17.2146 57.7386 14.6078 61.5456 10.8006L67.2621 5.08349C68.7109 3.63503 70.9759 3.48605 72.5307 4.73671C73.401 5.4366 73.9344 6.47356 73.9942 7.58157C74.0542 8.69028 73.6386 9.77634 72.8539 10.5611L67.1369 16.2779C58.0542 25.3607 55.5668 30.6308 50.3294 42.7253C50.1902 43.0465 49.9009 43.2779 49.5569 43.3429C49.2134 43.4073 48.8591 43.298 48.6125 43.0496L43.9215 38.3268C42.6794 39.5853 39.6709 42.628 36.1185 46.1806C35.8489 46.45 35.5879 46.7109 35.3354 46.9633H43.6707C44.9976 46.9633 46.0771 48.0417 46.0777 49.367C46.0783 51.3232 45.5589 53.1636 44.6155 54.5494C43.5687 56.0868 42.0807 56.978 40.2842 57.1533C36.324 64.8255 28.5476 68.1108 14.4579 68.1108ZM19.825 49.0461C20.1731 52.113 22.0823 55.075 25.3032 55.075H39.5933C39.6075 55.0747 39.6216 55.0747 39.6358 55.075C41.0126 55.0692 42.1009 54.4927 42.8713 53.3615C43.5685 52.3376 43.9681 50.8819 43.9676 49.3674C43.9676 49.2054 43.8344 49.0733 43.6708 49.0733H33.2238C30.5749 51.7191 29.3369 52.95 29.321 52.9658C28.9078 53.3769 28.2397 53.3749 27.829 52.9616C27.418 52.5482 27.42 51.8801 27.8332 51.4695C27.853 51.4498 29.7484 49.5651 33.8802 45.4343L32.4122 43.9661C29.0316 47.0325 24.6308 48.8086 19.825 49.0461ZM33.914 42.4836L35.3723 43.9419C38.6064 40.7034 41.2909 37.9881 42.4345 36.8294L40.9478 35.3324L33.914 42.4836Z" fill="white"/>
</svg>
