<svg width="76" height="72" viewBox="0 0 76 72" fill="none" xmlns="http://www.w3.org/2000/svg">
<circle cx="38" cy="36" r="36" fill="#640046"/>
<path d="M62.7098 71.318C62.4805 71.318 62.2483 71.2979 62.0148 71.2564C60.9795 71.0722 60.0785 70.4979 59.4773 69.6393C59.4665 69.624 59.4556 69.6083 59.4451 69.5928C59.4297 69.6037 59.4142 69.6147 59.3986 69.6254C58.5358 70.2236 57.4905 70.4516 56.4551 70.2673C55.3665 70.0734 54.4619 69.4494 53.887 68.6025C53.8711 68.6137 53.8551 68.625 53.8391 68.6363C52.9762 69.2346 51.9314 69.4627 50.8954 69.2781C49.8604 69.0939 48.9592 68.5195 48.358 67.661C48.3469 67.645 48.3359 67.6289 48.3248 67.6128C47.4904 68.2089 46.4242 68.4823 45.336 68.2888C43.4716 67.9571 42.1473 66.3629 42.0932 64.5499L27.7226 56.2181C27.1913 55.91 27.0116 55.2318 27.3212 54.7032C27.6307 54.1749 28.3123 53.9962 28.8436 54.3039L43.8099 62.9809C44.2137 63.2152 44.4276 63.6752 44.3452 64.1331C44.1792 65.0569 44.7995 65.9429 45.7279 66.1082C46.6556 66.2739 47.5468 65.6561 47.7129 64.7323C47.9529 63.397 47.6559 62.0484 46.8765 60.9352C46.5251 60.4332 46.6492 59.7429 47.1536 59.3932C47.6583 59.0436 48.3519 59.1671 48.7034 59.6689C49.8227 61.2677 50.2493 63.2044 49.9046 65.1225C49.9044 65.1235 49.9043 65.1244 49.904 65.1254C49.8246 65.5719 49.9242 66.0228 50.1848 66.3951C50.4461 66.768 50.8374 67.0176 51.2873 67.0977C51.7375 67.1773 52.1913 67.0786 52.5662 66.8188C52.941 66.5589 53.1919 66.1696 53.2723 65.7219C53.5765 64.0303 53.3163 62.333 52.5199 60.8134C52.2356 60.2709 52.4472 59.6019 52.9924 59.319C53.537 59.0364 54.2099 59.2464 54.4943 59.7891C55.5198 61.7461 55.8556 63.931 55.4649 66.1083C55.4646 66.1096 55.4645 66.1108 55.4642 66.112C55.2982 67.0358 55.9185 67.9218 56.847 68.0871C57.2965 68.1671 57.7508 68.0682 58.1258 67.8082C58.5006 67.5483 58.7514 67.1588 58.8319 66.7112C59.1963 64.6837 58.9327 62.6275 58.0692 60.7646C57.8118 60.2092 58.0556 59.5511 58.614 59.295C59.1721 59.0389 59.8337 59.2814 60.0911 59.837C61.1462 62.1132 61.4687 64.6253 61.0236 67.1012C61.0234 67.1021 61.0233 67.1032 61.0231 67.104C60.9436 67.5507 61.0432 68.0014 61.3038 68.3739C61.5651 68.7468 61.9565 68.9964 62.4064 69.0765C63.3344 69.2419 64.2254 68.6245 64.3915 67.7006C64.8156 65.3403 64.5512 62.9292 63.6269 60.7282C63.3897 60.1638 63.6574 59.5149 64.2248 59.279C64.7915 59.0427 65.4442 59.3094 65.6812 59.8739C66.4466 61.6963 66.8285 63.6402 66.8147 65.5994L67.9292 66.2396C68.9016 66.7982 70.0313 66.9358 71.1103 66.6276C72.1776 66.3228 73.0553 65.6199 73.5848 64.6466C73.9997 63.7034 73.6968 62.4748 72.9159 61.9294L72.0192 61.4142C65.3547 57.5856 59.5257 52.2283 55.1624 45.9214C54.8137 45.4175 54.9418 44.7278 55.4481 44.3809C55.9546 44.0336 56.6479 44.1614 56.9965 44.6652C61.1732 50.7025 66.753 55.8308 73.1323 59.4957L74.0662 60.0321C74.0881 60.0447 74.1096 60.0579 74.1307 60.0721C75.847 61.2197 76.4912 63.6457 75.5977 65.5952C75.5884 65.6154 75.5786 65.6352 75.568 65.6549C74.7545 67.18 73.3894 68.2817 71.7247 68.7572C70.0595 69.233 68.3161 69.0203 66.8162 68.1584L66.5943 68.031C66.5907 68.051 66.5872 68.071 66.5836 68.0909C66.2431 69.9839 64.5795 71.318 62.7098 71.318ZM4.08218 64.6679C3.46735 64.6679 2.9689 64.1721 2.9689 63.5602V60.2371H1.11343C0.498606 60.2371 0.000154012 59.7413 0.000154012 59.1294C0.000154012 58.5175 0.498606 58.0217 1.11343 58.0217H2.9689V54.6986C2.9689 54.0868 3.46735 53.5909 4.08218 53.5909C4.697 53.5909 5.19546 54.0868 5.19546 54.6986V58.0217H7.05092C7.66575 58.0217 8.1642 58.5175 8.1642 59.1294C8.1642 59.7413 7.66575 60.2371 7.05092 60.2371H5.19546V63.5602C5.19546 64.1721 4.697 64.6679 4.08218 64.6679ZM17.9324 60.395C16.0907 60.395 14.5926 58.9042 14.5926 57.0719C14.5926 55.2396 16.0907 53.7488 17.9324 53.7488C19.7741 53.7488 21.2722 55.2396 21.2722 57.0719C21.2722 58.9042 19.7741 60.395 17.9324 60.395ZM17.9324 55.9642C17.3185 55.9642 16.8191 56.461 16.8191 57.0719C16.8191 57.6828 17.3185 58.1796 17.9324 58.1796C18.5463 58.1796 19.0457 57.6828 19.0457 57.0719C19.0457 56.461 18.5463 55.9642 17.9324 55.9642ZM24.6538 54.2647C24.4635 54.2647 24.2707 54.2161 24.0943 54.1139L10.8576 46.4395C8.09265 44.8365 6.13788 42.1283 5.49456 39.0092C4.85123 35.89 5.5759 32.6346 7.48287 30.0776L12.2768 23.6493L0.149333 2.74955C-0.15808 2.21978 0.0243493 1.54231 0.556794 1.23644C1.08924 0.930718 1.77012 1.11194 2.07753 1.64186L14.5706 23.1715C14.7925 23.5539 14.7649 24.0308 14.5005 24.3854L9.2711 31.3977C7.74115 33.4494 7.15973 36.0612 7.67584 38.5639C8.19211 41.0662 9.76035 43.2392 11.9787 44.5253L25.2155 52.1997C25.7467 52.5078 25.9265 53.186 25.6169 53.7146C25.4099 54.0677 25.0369 54.2647 24.6538 54.2647ZM45.4761 50.9651C44.8611 50.9651 44.3628 50.4693 44.3628 49.8574V46.5344H42.5074C41.8924 46.5344 41.3941 46.0386 41.3941 45.4267C41.3941 44.8148 41.8924 44.319 42.5074 44.319H44.3628V40.9959C44.3628 40.384 44.8611 39.8882 45.4761 39.8882C46.0911 39.8882 46.5894 40.384 46.5894 40.9959V44.319H48.4449C49.0598 44.319 49.5581 44.8148 49.5581 45.4267C49.5581 46.0386 49.0598 46.5344 48.4449 46.5344H46.5894V49.8574C46.5894 50.4692 46.0909 50.9651 45.4761 50.9651ZM53.9252 43.0038C53.5404 43.0038 53.1664 42.8051 52.96 42.4498L29.9232 2.74955C29.6157 2.21978 29.7982 1.54231 30.3306 1.23644C30.8631 0.930718 31.5438 1.11194 31.8514 1.64186L54.8884 41.3421C55.1958 41.8719 55.0134 42.5493 54.4809 42.8552C54.3056 42.9558 54.1141 43.0038 53.9252 43.0038ZM71.918 40.5831C71.303 40.5831 70.8047 40.0873 70.8047 39.4754V36.1523H68.9492C68.3343 36.1523 67.836 35.6565 67.836 35.0447C67.836 34.4328 68.3343 33.937 68.9492 33.937H70.8047V30.6139C70.8047 30.002 71.303 29.5062 71.918 29.5062C72.533 29.5062 73.0313 30.002 73.0313 30.6139V33.937H74.8867C75.5017 33.937 76 34.4328 76 35.0447C76 35.6565 75.5017 36.1523 74.8867 36.1523H73.0313V39.4754C73.0313 40.0873 72.533 40.5831 71.918 40.5831ZM21.757 34.4301C21.5667 34.4301 21.3738 34.3815 21.1976 34.2793C19.3771 33.2239 18.09 31.4407 17.6664 29.3872C17.2428 27.3335 17.72 25.19 18.9755 23.5065C19.3418 23.0153 20.0392 22.9126 20.5329 23.2768C21.0266 23.6415 21.1299 24.3352 20.7635 24.8264C19.8849 26.0047 19.5511 27.5047 19.8475 28.9417C20.144 30.3788 21.0445 31.6266 22.3184 32.3651C22.8497 32.6732 23.0294 33.3514 22.7198 33.8798C22.5132 34.2331 22.1403 34.4301 21.757 34.4301ZM48.9074 21.197C47.0659 21.197 45.5676 19.7062 45.5676 17.874C45.5676 16.0417 47.0659 14.5509 48.9074 14.5509C50.7489 14.5509 52.2472 16.0417 52.2472 17.874C52.2472 19.7062 50.7489 21.197 48.9074 21.197ZM48.9074 16.7663C48.2935 16.7663 47.7941 17.2631 47.7941 17.874C47.7941 18.4848 48.2935 18.9817 48.9074 18.9817C49.5213 18.9817 50.0207 18.4848 50.0207 17.874C50.0207 17.2631 49.5213 16.7663 48.9074 16.7663Z" fill="white"/>
</svg>
